<svg viewBox="0 0 400 560" xmlns="http://www.w3.org/2000/svg">
  <defs>
    <radialGradient id="spot3" cx="50%" cy="30%" r="70%">
      <stop offset="0%" stop-color="#2c2a38"/>
      <stop offset="100%" stop-color="#0a0a0d"/>
    </radialGradient>
    <linearGradient id="rim3" x1="0%" y1="0%" x2="100%" y2="100%">
      <stop offset="0%" stop-color="#4a4a58"/>
      <stop offset="100%" stop-color="#16161c"/>
    </linearGradient>
  </defs>
  <rect width="400" height="560" fill="url(#spot3)"/>
  <!-- stylized mid-air diving figure, geometric silhouette -->
  <g fill="url(#rim3)" transform="rotate(18 200 220)">
    <ellipse cx="190" cy="130" rx="46" ry="52"/>
    <path d="M135 175 Q195 158 250 178 L262 280 Q190 305 128 278 Z"/>
    <path d="M132 185 Q60 170 30 200 Q45 230 85 215 Q115 200 140 195 Z"/>
    <path d="M255 180 Q330 155 365 178 Q355 210 315 205 Q280 195 250 195 Z"/>
    <path d="M150 285 Q130 360 150 430 Q180 440 195 420 Q190 355 180 290 Z"/>
    <path d="M225 285 Q245 360 225 430 Q195 440 180 420 Q185 355 195 290 Z"/>
  </g>
  <ellipse cx="245" cy="185" rx="46" ry="52" transform="rotate(18 200 220)" fill="none" stroke="#f4d68a" stroke-width="1.5" opacity="0.3"/>
</svg>
